<svg class="svg-icon" style="width: 1em; height: 1em;vertical-align: middle;fill: currentColor;overflow: hidden;" viewBox="0 0 1024 1024" version="1.1" xmlns="http://www.w3.org/2000/svg"><path d="M814.8 124.5c0.7 23.2 0 50.4-4.3 75.5l-0.1 0.5-0.1 0.5c-1.5 11.2-5.4 26.3-15.3 34.3-6.5 5.3-13.9 6.1-17.6 6.1-2.3 0-3.6-0.3-3.8-0.3-7.1-1.8-16.6-5.6-21.6-13.2-3.8-5.8-4.9-13.4-3.3-22.9 2-6.8 11.7-28.6 56.4-71.4 3.2-3.1 6.5-6.1 9.7-9.1M840 63.6s-107.3 83.1-120.7 134.8c-6.8 35.9 11.1 62.8 46.9 71.8 3 0.7 6.8 1.2 11.1 1.2 21.4 0 55.2-12.1 62.6-66.4 11.4-65 0.1-141.4 0.1-141.4zM867 310.4c-16.4 14.4-35.5 28-56.5 37.7-11.4 4.4-24 6.9-34.8 6.9-8.5 0-15.6-1.6-19.5-4.4-1.3-0.9-4.3-3.1-4.7-11.9 0-0.2 0.1-0.6 0.2-1.1 0.4-1.6 1.4-4.1 3.8-6.9 4.3-4.8 18.8-16 60.4-16.9h0.8c19.7-1.1 36.2-2.2 50.3-3.4m87-60.4c-15.6 22.5-49.2 29.2-138.8 33.7-98.3 2.2-93.7 56.1-93.7 56.1 1.4 33.3 26.1 45.2 54.2 45.2 15.5 0 32.1-3.6 46.4-9.3 73.8-33.5 127.4-110 131.9-125.7zM817.3 431.8c-22.1 24.4-43.3 43.2-56.1 50.1l-0.4 0.2-0.4 0.2c-28.6 16.2-45.3 19.6-54.2 19.6-6.3 0-9.9-1.7-12.4-3.6-0.5-0.5-0.9-1.1-1.4-1.6-8.6-10-16-18.7-10-39.9 0.1-0.1 0.2-0.3 0.3-0.4 1.2-1.7 3.4-4.3 7.2-7.2 8.5-6.4 25.1-14.1 55.8-14.2 4.9 0.2 9.9 0.2 14.8 0.2 19 0 38.3-1.2 56.8-3.4m76.4-53.7c-10.4 12.6-67.6 27.1-133.3 27.1-4.7 0-9.5-0.1-14.3-0.2-76 0-91.7 40.4-91.7 40.4-13.5 42.7 8.9 62.9 18 74.1 8.8 7.9 19.8 12.4 33.8 12.4 17.7 0 40.2-7.2 69-23.5 42.4-22.5 116.2-114.7 118.5-130.3z" fill="#2c2c2c" /><path d="M761.6 564.5c-6.4 6.8-12.8 12.8-18.7 17.9-27.8 24.1-55.5 38.3-70.8 43.1l-0.9 0.3-0.8 0.3c-21.6 8.3-35 10-42.5 10-7.6 0-10.5-1.6-11.8-2.9-3.3-10.4-0.7-29.7 2.3-40.3l0.1-0.4c0.4-1 2.2-5.7 7.1-10.3 7.4-6.9 18.7-10.4 33.3-10.4 1.1 0 2.2 0 3.3 0.1h2.2l1.9-0.1c31.1-1.2 64.1-2.4 95.3-7.3m67.1-54c-40.2 26.9-107.2 29.2-165.4 31.5-1.5-0.1-2.9-0.1-4.4-0.1-58.7 0-69.4 42.8-69.4 42.8s-11.1 38.3-0.1 62.9c7.5 12.5 20.4 18.7 38.5 18.7 14.5 0 32.3-4 53.2-12 42.6-13.5 125.4-69.7 147.6-143.8zM673.8 708.8c-11.1 12.3-17.8 17.7-20.7 19.7l-1.4 0.9-1.3 1.1c-23.5 20.5-50.5 32.7-72 32.7-6.7 0-12.9-1.2-18.4-3.6-10.8-5.6-11.2-12.1-11.4-14.3-0.4-6.3 3.1-13.2 8.5-16.8l1.1-0.7 1-0.8c5.3-4.2 21-11.4 46.1-11.4 22.6 0.1 46.4-2.8 68.5-6.8m75.5-53.4c-0.3 0-1.3 1.1-3.3 3.5-17.9 6.8-84.9 26.8-140.8 26.8-31.3 0-53.6 9.1-64.8 18-26.9 18-33.6 63 6.7 83.1 10 4.5 20.5 6.4 31.2 6.4 32.4 0 66.5-18.1 91.7-40.1 32-22 81.8-97.7 79.3-97.7zM624.8 174.3c17.4 45.2 37.1 74.6 60.2 89.6 7.8 5.1 9.3 9.6 9.7 13.4 1 9.1-4.6 20.6-8.5 26.2-5 1.7-14 4.1-23.9 4.1-7.7 0-14.2-1.5-19.4-4.4-6.1-3.4-10.8-9.2-14.3-17.6l-0.2-0.4-0.2-0.4c-9.9-21.5-12.3-57.8-6.3-94.7 0.7-5.5 1.7-10.7 2.9-15.8m7.3-79.2c-38 29.2-58.1 143.7-31.3 202.1 13.4 31.9 38.9 40.4 61.4 40.4 18.7 0 35.4-5.8 41.5-9 11.2-8.9 42.5-60.6-2.3-89.8-44.7-29.1-69.3-143.7-69.3-143.7zM551 321c10.7 30.8 27.2 68.9 52 107v0.2c0 0.4-0.9 2.8-4.7 6.4-3.6 3.4-7.5 5.9-9.5 6.9-6 1.6-11.7 2.4-17 2.4-8.7 0-15.4-2.2-20-6.4-7.4-7-10-19.9-10.8-29.7-1-28.3-0.5-51.7 5.5-73.6 1.4-4.5 2.9-8.9 4.5-13.2m11.8-71c-49.2 51.7-53.7 98.9-51.5 159.5 3.5 47.2 30.1 64.5 60.7 64.5 8.7 0 17.6-1.4 26.5-3.9 2.3 0 47-22.5 31.3-56.1-53.6-80.9-67-164-67-164z" fill="#2c2c2c" /><path d="M484.6 468.4c4 7.1 8.4 14.3 13.3 21.2l0.3 0.4 0.3 0.4c8.3 11.1 18.1 22.9 26.7 33.3 8.2 10 20.6 25 23.4 29.9 1.9 4.8 2.2 9 0.8 12.2-1 2.4-2.8 3.8-4.1 4.3l-0.2 0.1-0.2 0.1c-7.2 2.9-18.9 6-30 6-9 0-13.2-2.1-13.9-3.2l-0.5-0.9-0.6-0.8c-5.9-8.1-15.5-31.1-17.6-60.8-1-14.1-0.2-28.3 2.3-42.2m-0.1-79.1c-55.9 87.5-26.9 175.1-8.9 199.8 8.1 12.8 23.3 17.2 39.3 17.2 14.9 0 30.4-3.8 41.2-8.1 17.9-6.9 31.2-29.2 20.1-56.2-4.5-11.3-33.6-42.7-53.7-69.6-26.8-38.2-38-83.1-38-83.1zM423.4 597.6c16.2 23.9 35 50.6 52.2 71.9 10.7 17.8 11.9 29.8 9.4 35.2-2.4 5-9.4 6.8-12.5 7.3-2.9 0.2-5.7 0.4-8.4 0.6-6.4 0.5-11.9 0.9-16.7 0.9-5.2 0-8.7-0.5-9.9-1.5-0.7-0.6-4.6-4.3-8.6-19.1-0.5-2.8-1.1-5.6-1.9-8.7-2.3-10-5.9-25.1-5.9-49.2 0-11.7 0.7-24.2 2.3-37.4m-14.9-78.1c-31.3 116.9-11.2 164-8.9 179.7 9.8 37.5 25.4 44.3 47.9 44.3 8.4 0 17.8-1 28.2-1.6 33.5-4.5 58.1-35.9 24.5-89.8-40.3-49.3-91.7-132.6-91.7-132.6zM468.5 803.9c2.1 1 4.2 1.9 6.1 2.7-3.8 5.8-8.5 12.9-14.4 21.6 3.4-9.2 6.2-17.3 8.3-24.3m-22-44c0 51.6-78.3 193.1-78.3 193.1l38 4.5s121.3-168.4 112.1-168.4h-0.2c-0.4 0.1-0.8 0.1-1.3 0.1-14 0-70.3-29.3-70.3-29.3z" fill="#2c2c2c" /><path d="M196.7 323.9c7.5 9.9 14.8 20.8 20.7 32.1l0.4 0.8 0.5 0.8c4.5 7.5 5.9 13 4.1 16.6-1.4 2.7-4.1 4.9-6.2 6.4-1.8 0.4-5.2 1-9.3 1-5.3 0-8.3-1-9.3-1.5 0-0.1-0.1-0.3-0.1-0.6-3.3-19.8-2.8-39-0.8-55.6m-15.3-62.7s-24.5 58.4-13.4 123.6c4 21.3 22.9 26.8 39 26.8 11.1 0 20.9-2.6 23.6-4.4 6.7-4.4 38-24.7 13.4-65.1-22.3-42.7-62.6-80.9-62.6-80.9zM291.5 413.5c-3.2 12.1-6.8 18-8.7 20.4l-0.1 0.1-0.1 0.1c-6.5 8.7-15.6 11.8-21.5 11.8-0.8 0-1.6-0.1-2.2-0.2 1.2-4.6 6.6-13.1 20.6-23.4h0.2c4.3-3.1 8.2-6 11.8-8.8m35.2-80.4c-13.5 20.2-22.3 33.7-64.8 65.1-49.2 36-29.1 65.2-29.1 65.2 6.5 8.4 16.9 12.5 28.3 12.5 15.9 0 33.8-8.1 45.5-23.9 22.4-29.2 22.4-94.2 20.1-118.9zM316.3 504c-3 14.3-7.4 26.5-13.1 35.9l-0.4 0.6-0.3 0.6c-8.8 16.3-15.4 17.8-19.4 17.9-5.8-0.6-6.8-2.3-7.5-3.3-1.9-3.1-3-8.2-3.6-12.5 0.3-1.6 1-4.3 2.4-7.3 3-6.1 8-11.1 15.1-14.9l0.5-0.2 0.4-0.3c8.8-5 17.5-10.6 25.9-16.5m32.8-78.9c0 0.2 0.1 0.4 0.1 0.6 0-0.2-0.1-0.4-0.1-0.6z m0.1 0.6c1 11.9-32.2 44.8-73.9 69.1-33.5 18-33.5 49.4-33.5 49.4 2.2 15.8 6.7 42.6 40.2 45 13.4 0 31.3-4.6 46.9-33.7 26.6-44.4 22.5-112.9 20.3-129.8z" fill="#2c2c2c" /><path d="M340.1 603.5c-3.1 19.6-8.7 36.3-16.1 47.8-3.3 4.9-5.5 7.7-6.9 9.2-1.8-0.5-4.7-1.4-9.2-3l-1.3-0.5-1.3-0.3c-7.8-2.1-10.7-5-11.3-6.6v-0.4s0.4-2.9 1.1-5.4c1.9-6.5 5.9-12.5 11.8-17.7l1.6-1.1c10.6-7.2 21.4-14.4 31.6-22m26.8-75c-13.4 31.4-44.6 51.6-78.2 74.1-26.9 22.5-24.6 49.6-24.6 49.6s0 24.7 33.5 33.6c9 3.3 15.9 5.3 21.9 5.3 10.4 0 18.2-6.2 29.5-23.3 29.1-44.9 26.9-125.8 17.9-139.3zM352.3 721.5c-3.1 12.2-6.9 21.7-11.3 28.1-5.3 7.8-9.9 9.1-14 9.3H325.8c-1.4 0-3-0.2-4.9-2.5-1.9-2.4-2.6-5.2-2.8-6.9 2.3-3.5 9.2-11.4 20.2-18.4 3.3-1.9 8.2-5.3 14-9.6m34.8-78.4c-11.2 22.5-47 51.6-64.8 62.9-17.9 11.3-31.3 27-33.5 36-4.3 19.4 10 47.1 37 47.1 1 0 2.1 0 3.2-0.1 33.5-2.2 47-35.9 53.7-65 6.6-31.6 8.9-60.8 4.4-80.9zM130.1 432.8c16.1 7.3 30.6 11 43.6 11.2 7.3 0.5 9.3 2.3 9.4 2.3 0.4 0.7 0.5 2.9 0.1 4.5-2 3.2-8.2 11.3-15 11.3-3 0-6.9-1.4-11.3-4.1-8.6-5.2-17.9-14.2-26.8-25.2m-60.4-77.2c-9 31.5 31.3 103.3 71.6 128 10 6.1 19 8.5 26.9 8.5 24.2 0 39-22 42.3-28.7 6.8-15.8 4.5-47.2-35.8-49.4-40.2 0-105-58.4-105-58.4zM158.8 549.5c13.9 5.9 29.3 10.5 45.9 12.9-0.2 0.7-0.4 1.4-0.7 1.9l-0.4 0.5c-2 2.3-5.4 3.4-10.2 3.4-7.1 0-15.6-2.8-22.5-7.3-4.6-4.1-8.6-7.8-12.1-11.4m-60.2-79.4c2.3 56.1 15.7 81 53.7 114.5 11.9 8.4 26.9 13.6 41 13.6 12.5 0 24.3-4.1 32.7-13.6 11.2-11.2 17.9-49.3-15.6-51.7-67-8.9-111.8-62.8-111.8-62.8zM173.7 646.2c16.2 6.3 33.6 11.8 52 16.4-5.7 8.4-10 8.4-11.4 8.4-1.4 0-2.9-0.2-4.7-0.7l-0.3-0.1-0.3-0.1c-12.2-3-24.8-11.7-35.3-23.9m-57.1-66.1c6.7 69.6 49.2 110.1 85 119 4.5 1.2 8.7 1.8 12.7 1.8 17.5 0 29.2-11 36.6-22 8.9-11.2 15.6-35.9-15.6-45-82.9-20-118.7-53.8-118.7-53.8zM201.4 742.4c12.5 4.5 26.2 9.2 40.9 14.1 8.4 3.7 11.6 7.2 12.4 8.5-0.2 0.5-0.8 1.5-1.8 2.2l-1.7 1.3-1.5 1.5c-4 4.1-7.5 6.1-10.2 6.1-1.5 0-7.1-0.7-17.2-9-7.4-7.9-14.3-16.1-20.9-24.7M130 681.2c17.9 38.3 40.2 74.2 71.6 107.8 14.1 12.1 26.7 17.2 37.9 17.2 11.8 0 22.2-5.7 31.4-14.9 17.9-13.4 24.5-45-17.9-62.9-76.1-24.8-123-47.2-123-47.2zM313.5 797.9c-0.1 0-0.1 0-0.2 0.1-4.5 6.8-53.6 8.9-53.6 8.9 24.4 31.2 42.2 139.4 42.5 139.4l22.3-11.3s-6.5-137.1-11-137.1z" fill="#2c2c2c" /></svg>