<?xml version="1.0" encoding="iso-8859-1" ?>
<!-- Uploaded to: SVG Repo, www.svgrepo.com, Generator: SVG Repo Mixer Tools -->
<svg
  fill="#000000"
  height="800px"
  width="800px"
  version="1.1"
  id="Layer_1"
  xmlns="http://www.w3.org/2000/svg"
  xmlns:xlink="http://www.w3.org/1999/xlink"
  viewBox="0 0 512.001 512.001"
  xml:space="preserve"
>
<g>
	<g>
		<path
        d="M507.154,244.22l-43.447-43.875l15.689-59.721c2.333-8.881-2.923-17.984-11.78-20.403l-59.564-16.273l-16.273-59.564
			c-2.42-8.857-11.521-14.113-20.403-11.78l-59.72,15.69L267.78,4.846c-6.525-6.461-17.036-6.461-23.56,0l-43.875,43.448
			l-59.721-15.689c-8.883-2.333-17.983,2.923-20.403,11.78l-16.273,59.564l-59.564,16.273c-8.857,2.42-14.113,11.523-11.78,20.403
			l15.689,59.721L4.846,244.22c-6.461,6.525-6.461,17.036,0,23.56l43.448,43.875l-15.689,59.721
			c-2.333,8.881,2.923,17.984,11.78,20.403l59.564,16.273l16.273,59.564c2.42,8.857,11.521,14.114,20.403,11.78l59.721-15.689
			l43.875,43.448c3.262,3.231,7.521,4.846,11.78,4.846c4.259,0,8.518-1.615,11.78-4.846l43.875-43.448l59.721,15.689
			c8.882,2.331,17.983-2.923,20.403-11.78l16.273-59.564l59.564-16.273c8.857-2.42,14.113-11.523,11.78-20.403l-15.689-59.721
			l43.447-43.875C513.615,261.256,513.615,250.745,507.154,244.22z M433.191,294.885c-4.167,4.209-5.801,10.305-4.297,16.034
			l13.904,52.93l-52.79,14.422c-5.713,1.56-10.177,6.024-11.738,11.738l-14.422,52.79l-52.93-13.904
			c-5.73-1.505-11.825,0.128-16.034,4.297L256,471.697l-38.885-38.505c-3.175-3.144-7.424-4.846-11.781-4.846
			c-1.417,0-2.846,0.181-4.252,0.55l-52.93,13.904l-14.422-52.79c-1.56-5.713-6.024-10.177-11.738-11.738l-52.79-14.422
			l13.904-52.93c1.505-5.728-0.129-11.825-4.297-16.034l-38.505-38.885l38.505-38.885c4.168-4.209,5.802-10.305,4.297-16.034
			l-13.904-52.932l52.79-14.422c5.713-1.56,10.177-6.024,11.738-11.738l14.422-52.79l52.93,13.904
			c5.729,1.506,11.825-0.129,16.034-4.297L256,40.302l38.885,38.505c4.209,4.166,10.304,5.804,16.034,4.297l52.93-13.904
			l14.422,52.79c1.56,5.713,6.024,10.177,11.738,11.738l52.79,14.422l-13.904,52.93c-1.505,5.728,0.129,11.825,4.297,16.034
			l38.505,38.885L433.191,294.885z"
      />
	</g>
</g>
<g>
	<g>
		<path
        d="M189.035,133.229c-30.771,0-55.805,25.034-55.805,55.805s25.034,55.805,55.805,55.805s55.805-25.034,55.805-55.805
			S219.806,133.229,189.035,133.229z M189.035,211.356c-12.308,0-22.322-10.015-22.322-22.322c0-12.308,10.014-22.322,22.322-22.322
			s22.322,10.014,22.322,22.322S201.343,211.356,189.035,211.356z"
      />
	</g>
</g>
<g>
	<g>
		<path
        d="M322.967,267.161c-30.771,0-55.805,25.034-55.805,55.805c0,30.771,25.034,55.805,55.805,55.805
			c30.771,0,55.805-25.034,55.805-55.805C378.772,292.195,353.738,267.161,322.967,267.161z M322.967,345.288
			c-12.308,0-22.322-10.014-22.322-22.322c0-12.308,10.014-22.322,22.322-22.322c12.308,0,22.322,10.014,22.322,22.322
			C345.289,335.275,335.274,345.288,322.967,345.288z"
      />
	</g>
</g>
<g>
	<g>
		<path
        d="M345.965,166.035c-6.537-6.538-17.138-6.538-23.676,0L166.035,322.289c-6.538,6.538-6.538,17.138,0,23.676
			c3.269,3.269,7.554,4.904,11.837,4.904s8.569-1.634,11.837-4.904l156.254-156.254
			C352.503,183.173,352.503,172.573,345.965,166.035z"
      />
	</g>
</g>
</svg>
