<svg class="svg-icon" style="width: 1em; height: 1em;vertical-align: middle;fill: currentColor;overflow: hidden;" viewBox="0 0 1024 1024" version="1.1" xmlns="http://www.w3.org/2000/svg"><path d="M742.4 369L569.6 256h69.1c18.3 0 33.3-18 33.3-40v-88c0-22-15.6-31.7-33.3-40 0 0-73.3-24-126.7-24-53.3 0-126.7 24-126.7 24-18.3 6.7-33.3 18-33.3 40v88c0 22 15 40 33.3 40h69.1L281.6 369c-39.3 25.3-57.6 51-57.6 95v416c0 44 32.4 80 72 80h432c39.6 0 72-36 72-80V464c0-44-18.3-69.7-57.6-95zM448 216v-48c0-4.3 3.7-8 8-8h112c4.3 0 8 3.7 8 8v48c0 4.3-3.7 8-8 8H456c-4.3 0-8-3.7-8-8z m-64 0v-88c0-2.7 0.5-3.2 1.1-3.8 0.9-0.9 3.6-3.3 10.7-5.9 19.6-6.4 77-22.2 116.2-22.2 43.2 0 103.8 18.4 114.9 21.8 3.6 1.7 9.6 4.8 12.3 7.5 0.7 0.7 0.8 0.8 0.8 2.7v88c0 4.2-1.6 7-2.6 8h-30.2c0.5-2.6 0.8-5.3 0.8-8v-48c0-22-18-40-40-40H456c-22 0-40 18-40 40v48c0 2.7 0.3 5.4 0.8 8h-30.2c-1-1.1-2.6-3.9-2.6-8.1z m384 664c0 13.4-4.6 25.8-12.9 35.1-7.5 8.3-17.1 12.9-27.1 12.9H296c-10 0-19.6-4.6-27.1-12.9-8.3-9.3-12.9-21.7-12.9-35.1V464c0-30.6 10.4-47.2 42.9-68.1l0.1-0.1 0.1-0.1L463.9 288H560l164.8 107.8 0.1 0.1 0.1 0.1c32.5 21 42.9 37.5 42.9 68.1V880zM539.7 352c1.3 2.3 2.9 5.4 4.2 7.9 1.1 2.1 2.4 4.5 3.7 7l24.6 49.2H451.8l24.8-49.7c0.2-0.5 0.4-0.9 0.6-1.4 1.6-3.6 4.2-9.5 6.2-12.9h56.3M544 320h-64c-17.6 0-24.3 14.7-32 32l-32 64c-8.7 17.7 0 32 32 32h128c32 0 38.7-16.7 32-32l-32-64c-9.7-17.7-14.4-32-32-32z m176 240H304v-32h416v32z m0 64H304v-32h416v32z m0 64H304v-32h416v32z m0 64H304v-32h416v32z m0 64H304v-32h416v32z m0 64H304v-32h416v32z"  /></svg>