<svg class="svg-icon" style="width: 1.2978515625em; height: 1em;vertical-align: middle;fill: currentColor;overflow: hidden;" viewBox="0 0 1329 1024" version="1.1" xmlns="http://www.w3.org/2000/svg"><path d="M680.572595 465.334202C771.053925 408.661113 901.009216 392.385159 1030.964508 431.416147 1213.44975 486.284891 1335.211669 631.428096 1328.075384 773.262717 1325.039496 811.244239 1273.119692 814.862139 1215.730839 806.418527 1105.203746 789.991598 1042.809478 754.722124 949.292261 700.306309 880.8188 660.520443 808.556506 621.633065 710.477112 607.765363 668.575552 601.890187 645.501319 635.196974 689.077531 649.666737 819.184895 692.77592 883.094326 751.55715 973.431002 796.168729 1032.791235 825.412049 1093.368048 842.291908 1158.64613 851.332058 1191.898096 855.855815 1235.160891 854.648007 1263.094029 860.228597 1289.209713 865.350734 1301.807628 876.504551 1279.79976 903.785183 1198.728384 1009.744585 1027.928622 1053.905074 856.98606 1002.510624 705.927916 956.991348 596.617402 849.527709 567.46583 733.469483 540.597203 625.85487 584.468288 525.466854 680.572595 465.334202L680.572595 465.334202ZM582.650834 475.582163C497.479062 433.227859 383.157574 425.842923 270.210301 463.52249 100.172757 520.19558-10.050191 660.369465 0.730272 793.609498 4.678596 829.331903 53.714583 831.138091 107.307188 821.643171 210.844503 802.951603 268.537503 767.984078 354.925855 714.172168 400.920393 685.541958 448.747219 657.355469 506.736946 637.907176 513.873228 577.170624 540.293057 521.403388 582.650834 475.582163L582.650834 475.582163ZM506.280726 700.457284C441.002644 735.575783 394.392399 773.557305 335.032166 805.059744 279.926256 834.301224 223.600056 851.786827 162.262878 862.185763 131.141781 867.464398 90.304729 867.464398 64.189047 873.492395 39.748015 879.065618 28.359263 889.917483 49.766261 914.938999 129.170401 1012.305655 291.161081 1048.935755 450.4126 995.727749 509.924906 975.835734 562.156274 945.837534 604.361977 909.365773 561.852127 863.091619 529.666521 808.381216 514.329448 746.580463 510.381123 731.059391 507.64938 715.683772 506.280726 700.457284L506.280726 700.457284ZM867.612595 356.057011C855.767625 290.947676 826.319325 224.024785 779.254718 163.733792 669.183842 23.10698 499.450441-33.860697 376.477509 20.094823 343.841249 35.62142 358.265889 82.190164 385.134518 129.2192 437.054322 220.106773 489.27827 262.612051 568.988412 325.915197 601.470743 351.684229 634.11442 378.5193 664.482573 411.371317 726.116478 376.101843 796.409246 358.769055 867.612595 356.057011L867.612595 356.057011ZM575.666622 416.651796C541.357564 390.11868 508.259525 366.608764 475.919992 337.214466 429.918037 295.313091 394.696545 248.140446 364.639956 194.1794 349.304733 166.747791 335.79253 128.464318 321.521815 106.011237 308.163537 85.06055 294.196968 77.824746 277.346585 106.162212 226.94009 187.094574 225.571436 301.197474 273.094117 409.114042 370.863803 380.6256 480.476607 379.266814 575.666622 416.651796L575.666622 416.651796Z"  /></svg>