<?xml version="1.0" encoding="utf-8"?>

<!-- Uploaded to: SVG Repo, www.svgrepo.com, Generator: SVG Repo Mixer Tools -->
<svg version="1.1" id="Icons" xmlns="http://www.w3.org/2000/svg" xmlns:xlink="http://www.w3.org/1999/xlink" 
	 viewBox="0 0 32 32" xml:space="preserve">
<style type="text/css">
	.st0{fill:none;stroke:#000000;stroke-width:2;stroke-linecap:round;stroke-linejoin:round;stroke-miterlimit:10;}
</style>
<g>
	<path class="st0" d="M16,18.1C13.7,14.4,9.6,12,5,12c-0.5,0-0.9,0-1.4,0.1C3.2,13.3,3,14.6,3,16c0,6.7,5.1,12.2,11.6,12.9"/>
	<path class="st0" d="M16,18.1C13.7,14.4,9.6,12,5,12c-0.5,0-0.9,0-1.4,0.1"/>
	<path class="st0" d="M16,18.1c1.3,2,2,4.4,2,6.9c0,1.4-0.2,2.7-0.6,3.9C23.9,28.2,29,22.7,29,16c0-1.4-0.2-2.7-0.6-3.9
		C27.9,12,27.5,12,27,12c-3.5,0-6.6,1.4-9,3.6"/>
</g>
<path class="st0" d="M6.4,12.1C7.7,8,11.5,5,16,5c3.4,0,6.4,1.7,8.2,4.2"/>
<path class="st0" d="M18.1,5.2C16.3,5.8,15,7.5,15,9.5c0,0.7,0.2,1.4,0.5,2c-0.6-0.3-1.3-0.5-2-0.5c-1.5,0-2.9,0.8-3.7,1.9"/>
</svg>